<svg xmlns="http://www.w3.org/2000/svg" width="145" height="24" viewBox="0 0 145 24" fill="none"><g clip-path="url(#clip0_934_22602)"><path d="M37.5071 13.9663H41.716L41.7436 11.7934H37.5071V10.1587H43.3485L41.5098 7.87891H35.0352V18.01H43.1482V15.8838H37.5061L37.5071 13.9663Z" fill="white"/><path d="M50.4408 12.7813L53.7857 7.87891H51.1224L49.0273 10.9872L46.9263 7.87891H44.2531L47.5605 12.8988L44.1348 18.0149H46.7162L49.0401 14.6783L51.2378 18.0149H53.9198L50.4408 12.7813Z" fill="white"/><path d="M60.1178 7.54102L54.7617 18.015H57.5059L58.1273 16.727L58.655 18.016H65.3497L60.1178 7.54102ZM60.0725 12.7037L61.5106 15.8781H58.5416L60.0725 12.7037Z" fill="white"/><path d="M76.0148 7.47461L72.7498 13.3629L69.3379 7.48432L66.1035 18.0098H68.5133L69.9929 13.2279L72.7193 17.5426L75.2839 13.2444L76.7704 18.004H79.3528L76.0148 7.47461Z" fill="white"/><path d="M86.4687 13.9221C87.2359 13.8303 87.94 13.458 88.4415 12.8789C88.74 12.5249 88.9622 12.1148 89.0945 11.6735C89.2468 11.1957 89.2468 10.6835 89.0945 10.2058C88.9623 9.76187 88.7442 9.34729 88.4524 8.98479C88.1679 8.64015 87.8086 8.36266 87.4009 8.17274C86.9578 7.97261 86.4748 7.87303 85.9874 7.88134H80.0039L81.9412 10.1009H86.158C86.2642 10.0976 86.3699 10.1154 86.4689 10.1533C86.5679 10.1912 86.6581 10.2483 86.7341 10.3214C86.8165 10.4119 86.8792 10.518 86.9184 10.6333C86.9576 10.7485 86.9724 10.8705 86.9619 10.9916C86.968 11.2137 86.8879 11.4297 86.738 11.5958C86.5714 11.7365 86.3647 11.823 86.1462 11.8435H80.8088V18.0105H83.2659V13.9474H83.8331L86.8081 18.0173H89.4348L86.4687 13.9221Z" fill="white"/><path d="M98.5806 9.138C97.6319 8.32604 96.4172 7.87891 95.1603 7.87891C93.9033 7.87891 92.6887 8.32604 91.7399 9.138C90.9962 10.3016 90.6016 11.6485 90.6016 13.0234C90.6016 14.3983 90.9962 15.7452 91.7399 16.9088C92.6899 17.7213 93.9059 18.1687 95.1642 18.1687C96.4225 18.1687 97.6385 17.7213 98.5885 16.9088C99.3337 15.7455 99.7289 14.3981 99.728 13.0227C99.7271 11.6473 99.3303 10.3003 98.5835 9.138H98.5806ZM93.0647 12.0219C93.143 11.7461 93.2724 11.487 93.4464 11.2575C93.6353 11.013 93.8696 10.806 94.1369 10.6475C94.4515 10.4838 94.802 10.3983 95.1578 10.3983C95.5136 10.3983 95.8641 10.4838 96.1787 10.6475C96.4458 10.8066 96.68 11.0139 96.8692 11.2584C97.0421 11.4876 97.1708 11.746 97.2489 12.0209C97.4104 12.7676 97.4104 13.5394 97.2489 14.2861C97.1651 14.5761 97.0346 14.8509 96.8623 15.1001C96.6899 15.3504 96.4583 15.5557 96.1876 15.6985C95.8674 15.857 95.512 15.9342 95.1538 15.9228C94.7956 15.9352 94.4399 15.858 94.1201 15.6985C93.8494 15.5557 93.6178 15.3504 93.4454 15.1001C93.2707 14.8523 93.1375 14.5784 93.0509 14.289C92.8893 13.542 92.8893 12.7699 93.0509 12.0229L93.0647 12.0219Z" fill="white"/><path d="M108.974 9.13842C108.026 8.3262 106.811 7.87891 105.554 7.87891C104.296 7.87891 103.081 8.3262 102.133 9.13842C101.389 10.302 100.994 11.6489 100.994 13.0238C100.994 14.3987 101.389 15.7456 102.133 16.9092C103.083 17.7217 104.299 18.1691 105.557 18.1691C106.815 18.1691 108.031 17.7217 108.981 16.9092C109.727 15.7463 110.123 14.3991 110.123 13.0238C110.123 11.6485 109.727 10.3013 108.981 9.13842H108.974ZM103.458 12.0223C103.537 11.7465 103.666 11.4873 103.84 11.2579C104.029 11.0134 104.263 10.8064 104.531 10.6479C104.845 10.4841 105.196 10.3986 105.552 10.3986C105.908 10.3986 106.259 10.4841 106.573 10.6479C106.841 10.8069 107.075 11.0142 107.264 11.2589C107.437 11.4879 107.567 11.7464 107.646 12.0214C107.807 12.7681 107.807 13.5399 107.646 14.2865C107.561 14.5759 107.429 14.8501 107.256 15.0986C107.084 15.3489 106.852 15.5543 106.581 15.6969C106.261 15.8555 105.906 15.9326 105.548 15.9213C105.189 15.9337 104.834 15.8565 104.514 15.6969C104.243 15.5542 104.012 15.3489 103.839 15.0986C103.666 14.8507 103.535 14.5772 103.45 14.2885C103.288 13.5415 103.288 12.7693 103.45 12.0223H103.458Z" fill="white"/><path d="M121.138 7.47461L117.873 13.3629L114.461 7.48432L111.227 18.0098H113.636L115.116 13.2279L117.842 17.5426L120.407 13.2444L121.894 18.004H124.477L121.138 7.47461Z" fill="white"/><path d="M128.898 15.3949C128.565 15.1159 128.139 14.9678 127.701 14.9791C127.268 14.9691 126.847 15.1172 126.518 15.3949C126.348 15.5439 126.215 15.7286 126.127 15.9352C126.04 16.1418 126 16.3651 126.012 16.5886C126.001 16.8096 126.041 17.0302 126.129 17.2338C126.217 17.4374 126.35 17.6186 126.52 17.764C126.851 18.0369 127.272 18.1816 127.703 18.171C128.139 18.1825 128.563 18.0378 128.898 17.764C129.067 17.6187 129.201 17.4374 129.289 17.2338C129.377 17.0302 129.417 16.8096 129.406 16.5886C129.417 16.3649 129.377 16.1415 129.29 15.935C129.202 15.7284 129.068 15.5438 128.898 15.3949Z" fill="white"/><path d="M136.296 7.54102L130.939 18.015H133.684L134.305 16.727L134.83 18.015H141.524L136.296 7.54102ZM136.249 12.7037L137.687 15.8781H134.717L136.249 12.7037Z" fill="white"/><path d="M142.48 7.87891H145.002V18.0149H142.48V7.87891Z" fill="white"/><path d="M28.1105 23.9463L19.0021 23.9638L16.832 20.3125L20.9808 20.3047H25.967L28.1105 23.9463Z" fill="white"/><path d="M24.2653 17.4133H15.1086L12.9385 13.7591H17.8242L14.0226 7.30937L10.8198 12.7965L10.2565 13.7591L9.45558 15.1345L8.12592 17.4133L6.41946 20.3341L12.5351 20.3235L14.7052 23.9738L0 24L7.29932 11.5017L7.35949 11.3958L14.0068 0L22.1081 13.7591L24.2653 17.4133Z" fill="white"/></g><defs><clipPath id="clip0_934_22602"><rect width="145" height="24" fill="white"/></clipPath></defs></svg>